<?xml version="1.0" encoding="utf-8"?>
<!-- Generator: Adobe Illustrator 27.8.1, SVG Export Plug-In . SVG Version: 6.00 Build 0)  -->
<svg version="1.1" id="Layer_1" xmlns="http://www.w3.org/2000/svg" xmlns:xlink="http://www.w3.org/1999/xlink" x="0px" y="0px"
	 viewBox="0 0 24 24" style="enable-background:new 0 0 24 24;" xml:space="preserve">
<style type="text/css">
	.st0{fill:#BBC6E4;}
</style>
<path id="Icon_ionic-ios-search" class="st0" d="M20.17,19.14l-4.67-4.71c2.28-2.88,1.8-7.06-1.08-9.34s-7.06-1.8-9.34,1.08
	s-1.8,7.06,1.08,9.34c2.45,1.94,5.91,1.92,8.34-0.05l4.64,4.68c0.27,0.29,0.73,0.3,1.01,0.03C20.43,19.88,20.44,19.43,20.17,19.14z
	 M10.27,15.51c-2.9,0-5.25-2.35-5.25-5.25s2.35-5.25,5.25-5.25c2.9,0,5.25,2.35,5.25,5.25c0,1.39-0.55,2.73-1.54,3.72
	C13,14.96,11.66,15.51,10.27,15.51z"/>
</svg>
